<?xml version="1.0" encoding="utf-8"?>
<!-- Generator: Adobe Illustrator 20.1.0, SVG Export Plug-In . SVG Version: 6.00 Build 0)  -->
<svg version="1.1" id="final_art" xmlns="http://www.w3.org/2000/svg" xmlns:xlink="http://www.w3.org/1999/xlink" x="0px" y="0px"
	 viewBox="0 0 1148 291" style="enable-background:new 0 0 1148 291;" xml:space="preserve">
<style type="text/css">
	.st0{fill:#BA0C2F;}
	.st1{fill:#002F6C;}
</style>
<g>
	<path class="st0" d="M127.4,271.3c-67.6,0-122.6-55-122.6-122.6v-2.7h34.1v2.7c0,48.8,39.7,88.5,88.5,88.5
		c34.1,0,65.9-18.6,81.7-54.4c11.8-26.8,20.4-45.7,28.3-63.4C247.4,97,267.3,84,290.7,84c31.8,0,57.7,25.9,57.7,57.7v4.3h-34.1v-4.3
		c0-13-10.6-23.7-23.7-23.7c-9.4,0-17.6,5-21.9,14.7c-4.9,11-15.4,34.5-29,65C219.3,243.8,175.9,271.3,127.4,271.3z"/>
	<path class="st0" d="M130.7,208.3c-31.8,0-57.7-25.9-57.7-57.7v-4.5H107v4.5c0,13,10.6,23.7,23.7,23.7c9.3,0,17.7-5.2,21.9-14.7
		c4.2-9.5,16.1-36.2,28.7-64.4c21.4-48,65.1-74.2,112.6-74.2c67.6,0,122.6,55,122.6,122.6v2.5h-34.1v-2.5
		c0-48.8-39.7-88.5-88.5-88.5c-36,0-66.9,21.2-81.1,52.9s-19.9,44.7-29.2,65.5C173.9,195.5,153.6,208.3,130.7,208.3z"/>
	<polygon class="st0" points="157.4,93 72.9,93 72.9,58.9 123.3,58.9 123.3,5.7 157.4,5.7 	"/>
	<polygon class="st0" points="298,283 263.9,283 263.9,195.8 348.4,195.8 348.4,229.8 298,229.8 	"/>
	<g>
		<path class="st1" d="M499.2,5.8c23.7,0,41.8,12.5,46.9,35.6l-25.5,10.3C517.7,39,510,34,499,34c-11.5,0-17.1,5.4-17.1,12.5
			c0,10.1,10.9,12.9,25.7,17.7c19.1,6.2,37,15.5,37,41.6c0,26.4-19.7,40.8-45.5,40.8c-21.7,0-41.6-10.5-47.1-35.6l25.1-10.9
			c2.8,12.5,10.1,18.3,22.1,18.3c10.9,0,17.1-4.8,17.1-12.7c0-10.5-11.1-13.3-24.9-17.5c-17.7-5.6-37.8-15.1-37.8-42
			C453.7,20.7,473.2,5.8,499.2,5.8z"/>
		<path class="st1" d="M701.1,5.8v140.8H673V90.3h-61.8v56.3h-28.2V5.8h28.2v56.3H673V5.8H701.1z"/>
		<path class="st1" d="M807.9,5.8c40.2,0,70.4,30.2,70.4,70.4c0,40.2-30.2,70.4-70.4,70.4c-40.2,0-70.4-30.2-70.4-70.4
			C737.5,36,767.7,5.8,807.9,5.8z M807.9,34c-24.7,0-42.2,17.5-42.2,42.3c0,24.5,17.5,42.2,42.2,42.2c24.5,0,42.2-17.7,42.2-42.2
			C850.2,51.5,832.5,34,807.9,34z"/>
		<path class="st1" d="M969.9,5.8c28.8,0,49.5,20.9,49.5,49.3s-20.7,49.1-49.5,49.1h-27v42.4h-28.2V5.8H969.9z M969.9,34h-27v42h27
			c13.5,0,21.3-8.9,21.3-20.9C991.2,42.9,983.3,34,969.9,34z"/>
		<path class="st1" d="M1096,5.8c23.7,0,41.8,12.5,46.9,35.6l-25.5,10.3c-2.8-12.7-10.5-17.7-21.5-17.7c-11.5,0-17.1,5.4-17.1,12.5
			c0,10.1,10.9,12.9,25.7,17.7c19.1,6.2,37,15.5,37,41.6c0,26.4-19.7,40.8-45.5,40.8c-21.7,0-41.6-10.5-47.1-35.6l25.1-10.9
			c2.8,12.5,10.1,18.3,22.1,18.3c10.9,0,17.1-4.8,17.1-12.7c0-10.5-11.1-13.3-24.9-17.5c-17.7-5.6-37.8-15.1-37.8-42
			C1050.5,20.7,1070,5.8,1096,5.8z"/>
	</g>
	<g>
		<path class="st1" d="M492.4,174.6c22.8,0,36.9,14.2,36.9,35.3c0,20.9-14.1,35.2-36.9,35.2h-29.1V283h-6.2V174.6H492.4z
			 M492.4,180.8h-29.1v58.1h29.1c19.5,0,30.7-12.1,30.7-29C523.1,192.9,511.9,180.8,492.4,180.8z"/>
		<path class="st1" d="M573.2,174.6v102.2h58.2v6.2H567V174.6H573.2z"/>
		<path class="st1" d="M755.6,174.6v59.6c0,28.2-21.4,48.8-49.2,48.8c-28,0-49.4-20.6-49.4-48.8v-59.6h6.2v59.6
			c0,24.2,18.4,42.6,43.2,42.6c24.6,0,43-18.4,43-42.6v-59.6H755.6z"/>
		<path class="st1" d="M820.1,174.6c12.7,0,26.9,5.9,31.9,23.1l-5.9,2.3c-3.9-13.9-14.6-19.2-26-19.2c-13.6,0-24.9,7.4-24.9,21.4
			c0,15.2,13.2,19.5,25.9,23.5c14.9,4.8,29.9,10.5,29.9,29.6c0,18.6-14.1,27.7-30.4,27.7c-11.9,0-27.9-5.1-32.5-23.1l5.6-2.6
			c3.9,14.2,15.3,19.5,26.8,19.5c13.2,0,24.3-7.1,24.3-21.2c0-16-13.8-20.3-25.4-23.8c-14.7-4.5-30.4-10.7-30.4-29.6
			C788.9,184.4,803.2,174.6,820.1,174.6z"/>
	</g>
	<path class="st0" d="M21.9,146.1"/>
</g>
</svg>
