<svg id="SvgjsSvg1000" xmlns="http://www.w3.org/2000/svg" version="1.1" xmlns:xlink="http://www.w3.org/1999/xlink" xmlns:svgjs="http://svgjs.com/svgjs" width="343" height="231" viewBox="0 0 343 231"><title>mark</title><desc>Created with Avocode.</desc><defs id="SvgjsDefs1001"></defs><path id="SvgjsPath1007" d="M1065.13 1878.27C1008.8200000000002 1878.27 963.0000000000001 1832.46 963.0000000000001 1776.15V1773.91H991.3960000000001V1776.15C991.3960000000001 1816.8000000000002 1024.47 1849.88 1065.13 1849.88C1093.5300000000002 1849.88 1120.0400000000002 1834.3700000000001 1133.2 1804.5700000000002C1143.04 1782.2700000000002 1150.18 1766.5100000000002 1156.76 1751.7800000000002C1165.1299999999999 1733.0500000000002 1181.67 1722.2100000000003 1201.17 1722.2100000000003C1227.7 1722.2100000000003 1249.28 1743.7900000000002 1249.28 1770.3100000000002V1773.91H1220.8899999999999V1770.3100000000002C1220.8899999999999 1759.4400000000003 1212.04 1750.6000000000001 1201.1699999999998 1750.6000000000001C1193.32 1750.6000000000001 1186.5199999999998 1754.8000000000002 1182.9299999999998 1762.8100000000002C1178.84 1771.93 1170.08 1791.5900000000001 1158.7599999999998 1817.0000000000002C1141.6899999999998 1855.3500000000001 1105.5399999999997 1878.2700000000002 1065.1299999999997 1878.2700000000002ZM1067.83 1825.79C1041.3 1825.79 1019.7199999999999 1804.21 1019.7199999999999 1777.69V1773.91H1048.11V1777.69C1048.11 1788.56 1056.9599999999998 1797.4 1067.83 1797.4C1075.56 1797.4 1082.57 1793.0400000000002 1086.07 1785.19C1089.6 1777.27 1099.52 1755.06 1110.01 1731.52C1127.85 1691.5 1164.22 1669.73 1203.86 1669.73C1260.1799999999998 1669.73 1306 1715.54 1306 1771.85V1773.9099999999999H1277.6V1771.85C1277.6 1731.1999999999998 1244.52 1698.12 1203.86 1698.12C1173.87 1698.12 1148.12 1715.8 1136.33 1742.2099999999998C1124.54 1768.61 1119.75 1779.4199999999998 1112 1796.7799999999997C1103.83 1815.0699999999997 1086.92 1825.7899999999997 1067.83 1825.7899999999997ZM1090.08 1729.69H1019.7199999999999V1701.3H1061.6799999999998V1657H1090.08ZM1207.29 1888H1178.8899999999999V1815.31H1249.2499999999998V1843.7H1207.2899999999997Z " fill="#ffffff" fill-opacity="1" transform="matrix(1,0,0,1,-963,-1657)"></path></svg>