<svg id="SvgjsSvg1000" xmlns="http://www.w3.org/2000/svg" version="1.1" xmlns:xlink="http://www.w3.org/1999/xlink" xmlns:svgjs="http://svgjs.com/svgjs" width="21" height="20" viewBox="0 0 21 20"><title>Ellipse 5</title><desc>Created with Avocode.</desc><defs id="SvgjsDefs1001"><clipPath id="SvgjsClipPath1010"><path id="SvgjsPath1009" d="M627.868 42.3681C630.9920000000001 39.2439 636.0580000000001 39.2439 639.182 42.3681C642.306 45.4925 642.306 50.5579 639.182 53.6821C636.058 56.8063 630.992 56.8063 627.868 53.6821C624.744 50.5579 624.744 45.4925 627.868 42.3681Z " fill="#ffffff"></path></clipPath></defs><path id="SvgjsPath1007" d="M627.868 42.3681C630.9920000000001 39.2439 636.0580000000001 39.2439 639.182 42.3681C642.306 45.4925 642.306 50.5579 639.182 53.6821C636.058 56.8063 630.992 56.8063 627.868 53.6821C624.744 50.5579 624.744 45.4925 627.868 42.3681Z " fill="#ffffff" fill-opacity="1" transform="matrix(1,0,0,1,-625,-40)"></path><path id="SvgjsPath1008" d="M627.868 42.3681C630.9920000000001 39.2439 636.0580000000001 39.2439 639.182 42.3681C642.306 45.4925 642.306 50.5579 639.182 53.6821C636.058 56.8063 630.992 56.8063 627.868 53.6821C624.744 50.5579 624.744 45.4925 627.868 42.3681Z " fill-opacity="0" fill="#ffffff" stroke-dasharray="0" stroke-linejoin="round" stroke-linecap="round" stroke-opacity="1" stroke="#002e6c" stroke-miterlimit="50" stroke-width="4" clip-path="url(&quot;#SvgjsClipPath1010&quot;)" transform="matrix(1,0,0,1,-625,-40)"></path><path id="SvgjsPath1011" d="M637.768 53.6821L639.889 51.5608L645.546 57.2177L643.4250000000001 59.3387Z " fill="#002e6c" fill-opacity="1" transform="matrix(1,0,0,1,-625,-40)"></path></svg>