<?xml version="1.0" encoding="utf-8"?>
<!-- Generator: Adobe Illustrator 17.1.0, SVG Export Plug-In . SVG Version: 6.00 Build 0)  -->
<!DOCTYPE svg PUBLIC "-//W3C//DTD SVG 1.1//EN" "http://www.w3.org/Graphics/SVG/1.1/DTD/svg11.dtd">
<svg version="1.1" id="Layer_1_copy_12" xmlns="http://www.w3.org/2000/svg" xmlns:xlink="http://www.w3.org/1999/xlink" x="0px"
	 y="0px" width="305px" height="50px" viewBox="0 0 305 50" enable-background="new 0 0 305 50" xml:space="preserve">
<g>
	<path fill="#E3DEDB" d="M61.9,39.7c-4.4,0-6.8,2-8.7,3.6c-1.8,1.6-3.3,2.8-6.4,2.8s-4.5-1.2-6.4-2.8c-1.9-1.6-4.3-3.6-8.7-3.6
		s-6.8,2-8.7,3.6c-1.8,1.6-3.3,2.8-6.4,2.8c-3.1,0-4.5-1.2-6.4-2.8c-1.9-1.6-4.3-3.6-8.7-3.6H1v3.6h0.7c3.1,0,4.5,1.2,6.4,2.8
		c1.9,1.6,4.3,3.6,8.7,3.6c4.4,0,6.8-2,8.7-3.6c1.8-1.6,3.3-2.8,6.4-2.8c3.1,0,4.5,1.2,6.4,2.8c1.9,1.6,4.3,3.6,8.7,3.6
		s6.8-2,8.7-3.6c1.8-1.6,3.3-2.8,6.4-2.8h0.7v-3.6H61.9z"/>
	<polygon fill="#E3DEDB" points="42.5,21.3 27.6,16.6 42.5,11.9 42.5,7.4 21.1,0.6 21.1,4.3 38,9.6 21.1,15 21.1,18.2 38,23.6 
		21.1,28.9 21.1,32.6 42.5,25.8 	"/>
</g>
<polygon fill="#E3DEDB" points="102.6,41.3 102.6,39.4 107.1,38.1 107.1,13.3 102.5,13.3 102.5,11.5 112.8,8.4 112.8,38.1 
	117.3,39.4 117.3,41.3 "/>
<path fill="#E3DEDB" d="M224.3,41.9c-2,0-3.7-0.9-5.1-2.5c-1.8-2.3-2.6-5.8-1.9-8.8l0.1-0.3l13.6-4.2c-0.4-2.5-1.1-4-2.4-4.8l-9,2.8
	l-0.9-2.7l10.9-3.4l0.2,0c4.7,1.4,7.1,5.2,7.1,11.4l0,8.7l4.5,1.4v1.8l-8.2,0l-1.5-1.6l-7.2,2.2l-0.1,0
	C224.3,41.9,224.3,41.9,224.3,41.9z M222.7,31.5c-0.5,2.1-0.1,4.4,0.9,5.8c0.4,0.5,1.1,1.2,2.2,1.2c0.6-0.2,3.8-1.2,5.3-1.7l0-7
	c0-0.3,0-0.6,0-0.9L222.7,31.5z"/>
<path fill="#E3DEDB" d="M128.7,41.9c-2.3,0-4.2-0.9-5.6-2.7c-1.2-1.5-1.9-3.6-1.9-5.7V23.2h-4.6v-1.7l10.2-3.1v15.9
	c0,1.1,0.4,2.1,1.2,2.8c0.8,0.7,1.8,1.1,3,1.1c0.1,0,0.3,0,0.4,0l3.9-1.2l0-13.7h-4.6v-1.7l10.3-3.1l0,19.7l4.5,1.4v1.8h-8.3
	l-1.4-1.5L128.7,41.9L128.7,41.9z"/>
<path fill="#E3DEDB" d="M158.2,41.9c-3.5,0-6.5-1.1-8.6-3.2c-2.1-2.1-3.2-5.2-3.2-8.8c0-7.8,3.9-12.1,11.1-12.1c2.8,0,5.3,0.9,7,2.5
	c1.9,1.8,3,4.4,3.2,7.7c0,0.4-0.4,0.6-0.5,0.6c-0.1,0-0.2,0.1-0.4,0.1c-0.3,0.1-0.8,0.3-1.4,0.4c-1.2,0.4-2.8,0.9-4.5,1.4
	c-3.1,1-6.5,2-8.3,2.6c0.8,4.2,3.1,5.6,5,6.1l8.3-2.6l0.8,2.7L158.2,41.9L158.2,41.9z M157.4,20.9c-1.7,0-2.9,0.7-3.8,2.2
	c-0.9,1.5-1.4,3.8-1.4,6.8c0,0.1,0,0.3,0,0.4l9.7-3c-0.2-2.1-0.6-3.7-1.3-4.8C159.9,21.4,158.8,20.9,157.4,20.9z"/>
<path fill="#E3DEDB" d="M269.2,41.9c-7.4-0.2-11.8-4.7-11.8-12.1c0-7.8,3.9-12.1,11.1-12.1c2.8,0,5.3,0.9,7,2.5
	c1.9,1.8,3,4.4,3.2,7.7c0,0.4-0.4,0.6-0.5,0.6c-0.1,0-0.2,0.1-0.4,0.1c-0.3,0.1-0.8,0.3-1.4,0.4c-1.2,0.4-2.8,0.9-4.5,1.4
	c-3.1,1-6.5,2-8.3,2.6c0.7,2.9,2.7,5.4,5,6.1l8.3-2.6l0.8,2.7L269.2,41.9L269.2,41.9z M268.5,20.9c-1.7,0-2.9,0.7-3.8,2.2
	c-0.9,1.5-1.4,3.8-1.4,6.8c0,0.1,0,0.3,0,0.4l9.7-3c-0.2-2.1-0.6-3.7-1.3-4.8C270.9,21.4,269.9,20.9,268.5,20.9z"/>
<polygon fill="#E3DEDB" points="203,41.3 198.3,27.6 193.4,41.3 189.2,41.3 182.1,21.6 177.8,20.3 177.8,18.6 191.9,18.6 
	191.9,20.3 187.9,21.6 192.4,34.3 197.9,18.6 201.2,18.6 206.4,34.3 211.3,21.5 207.3,20.3 207.3,18.6 216.1,18.6 207.2,41.3 "/>
<path fill="#E3DEDB" d="M249.5,41.4c-1.7-0.3-3.1-1.2-4-2.6c-1-1.5-1.5-3.7-1.5-6.6l0-10.7l-4-1.3v-1.7h4.8l1.9-5.3h3.1v5.3h6.1v1.7
	l-6.1,1.9v9.9c0,4,0.2,5.3,1.3,5.9l4.7-1.5l0.8,2.7l-6.8,2.1L249.5,41.4z"/>
<path fill="#E3DEDB" d="M280.3,41.3v-1.8l4.5-1.4V23.3h-4.7v-1.8l10.3-3.1v2l8.3-2.6l0.2,0c2.3,0.7,4.1,2,5.3,3.9l0.4,0.6l-5,1.4
	l-0.2-0.5c-0.4-1-1-1.6-1.9-2.2l-7.1,2.2l0,14.8l4.5,1.4v1.8H280.3z"/>
<path fill="#E3DEDB" d="M90.3,41.9c-5.9,0-9.7-2.1-9.8-2.2l-0.3-0.2V13.3h-4.6v-1.8l10.3-3.1l0,10.9l4.9-1.5h0.1c7.4,0,11,4,11,12.1
	C101.8,37.7,97.7,41.9,90.3,41.9z M85.9,38.2c0.5,0.3,2,1.2,4.4,1.2c3.6,0,5.6-3.5,5.6-9.5c0-3.1-0.5-5.4-1.4-7
	c-0.9-1.5-2.1-2.2-3.8-2.2l-4.9,1.6V38.2z"/>
</svg>
